<?xml version="1.0" encoding="UTF-8" standalone="no"?>
<!-- Created with Inkscape (http://www.inkscape.org/) -->

<svg
   xmlns:dc="http://purl.org/dc/elements/1.1/"
   xmlns:cc="http://creativecommons.org/ns#"
   xmlns:rdf="http://www.w3.org/1999/02/22-rdf-syntax-ns#"
   xmlns:svg="http://www.w3.org/2000/svg"
   xmlns="http://www.w3.org/2000/svg"
   xmlns:sodipodi="http://sodipodi.sourceforge.net/DTD/sodipodi-0.dtd"
   xmlns:inkscape="http://www.inkscape.org/namespaces/inkscape"
   width="77.205498"
   height="57.31052"
   id="svg2"
   version="1.1"
   inkscape:version="0.48.5 r10040"
   sodipodi:docname="Nouveau document 1">
  <defs
     id="defs4" />
  <sodipodi:namedview
     id="base"
     pagecolor="#ffffff"
     bordercolor="#666666"
     borderopacity="1.0"
     inkscape:pageopacity="0.0"
     inkscape:pageshadow="2"
     inkscape:zoom="3.959798"
     inkscape:cx="101.08232"
     inkscape:cy="-4.0002635"
     inkscape:document-units="px"
     inkscape:current-layer="layer1"
     showgrid="false"
     fit-margin-top="1"
     fit-margin-left="1"
     fit-margin-right="1"
     fit-margin-bottom="1"
     inkscape:window-width="1916"
     inkscape:window-height="1039"
     inkscape:window-x="0"
     inkscape:window-y="39"
     inkscape:window-maximized="0" />
  <metadata
     id="metadata7">
    <rdf:RDF>
      <cc:Work
         rdf:about="">
        <dc:format>image/svg+xml</dc:format>
        <dc:type
           rdf:resource="http://purl.org/dc/dcmitype/StillImage" />
        <dc:title></dc:title>
      </cc:Work>
    </rdf:RDF>
  </metadata>
  <g
     inkscape:label="Calque 1"
     inkscape:groupmode="layer"
     id="layer1"
     transform="translate(-30.12273,-137.26733)">
    <g
       style="font-size:48px;font-style:normal;font-variant:normal;font-weight:normal;font-stretch:normal;line-height:69.99999881%;letter-spacing:0px;word-spacing:0px;fill:#000000;fill-opacity:1;stroke:none;font-family:DejaVu Sans;-inkscape-font-specification:DejaVu Sans"
       id="text2985">
      <path
         d="m 31.12273,157.94733 c 0,-0.48 0.128,-0.832 0.384,-1.056 0.255999,-0.224 0.527999,-0.352 0.816,-0.384 0.319998,-0.032 0.831998,-0.048 1.536,-0.048 l 0,-14.832 c -0.704002,2e-5 -1.216002,-0.016 -1.536,-0.048 -0.288001,-0.032 -0.560001,-0.15998 -0.816,-0.384 -0.256,-0.22398 -0.384,-0.57598 -0.384,-1.056 0,-0.95998 0.655999,-1.43998 1.968,-1.44 l 1.536,0 c 0.383996,2e-5 0.671996,0.016 0.864,0.048 0.223995,0.032 0.447995,0.16002 0.672,0.384 0.223995,0.22402 0.351994,0.56002 0.384,1.008 1.247993,-1.15198 2.719992,-1.72798 4.416,-1.728 1.695988,2e-5 2.911987,0.83202 3.648,2.496 0.607986,-0.86398 1.375985,-1.48798 2.304,-1.872 0.959983,-0.41598 1.871982,-0.62398 2.736,-0.624 0.99198,2e-5 1.80798,0.27202 2.448,0.816 0.639978,0.51202 1.071978,1.21602 1.296,2.112 0.223977,0.86402 0.367977,1.53602 0.432,2.016 0.06398,0.48001 0.09598,0.97601 0.096,1.488 l 0,11.616 c 0.703976,0 1.199976,0.016 1.488,0.048 0.319975,0.032 0.607975,0.16 0.864,0.384 0.255974,0.224 0.383974,0.576 0.384,1.056 -2.6e-5,0.96 -0.656025,1.44 -1.968,1.44 l -3.84,0 c -1.312019,0 -1.968018,-0.48 -1.968,-1.44 -1.8e-5,-0.448 0.127982,-0.784 0.384,-1.008 0.287981,-0.256 0.559981,-0.4 0.816,-0.432 0.255981,-0.032 0.63998,-0.048 1.152,-0.048 l 0,-11.184 c -2e-5,-1.47199 -0.14402,-2.49598 -0.432,-3.072 -0.28802,-0.57598 -0.736019,-0.86398 -1.344,-0.864 -1.088017,2e-5 -2.064016,0.59202 -2.928,1.776 -0.864015,1.15201 -1.296014,2.73601 -1.296,4.752 l 0,8.592 c 0.703985,0 1.199985,0.016 1.488,0.048 0.319984,0.032 0.607984,0.16 0.864,0.384 0.255983,0.224 0.383983,0.576 0.384,1.056 -1.7e-5,0.96 -0.656016,1.44 -1.968,1.44 l -3.84,0 c -1.31201,0 -1.968009,-0.48 -1.968,-1.44 -9e-6,-0.448 0.127991,-0.784 0.384,-1.008 0.28799,-0.256 0.55999,-0.4 0.816,-0.432 0.255989,-0.032 0.639989,-0.048 1.152,-0.048 l 0,-11.184 c -1.2e-5,-1.47199 -0.144011,-2.49598 -0.432,-3.072 -0.288011,-0.57598 -0.73601,-0.86398 -1.344,-0.864 -1.088009,2e-5 -2.064008,0.59202 -2.928,1.776 -0.864006,1.15201 -1.296006,2.73601 -1.296,4.752 l 0,8.592 c 0.703994,0 1.199993,0.016 1.488,0.048 0.319993,0.032 0.607992,0.16 0.864,0.384 0.255992,0.224 0.383992,0.576 0.384,1.056 -8e-6,0.96 -0.656008,1.44 -1.968,1.44 l -4.224,0 c -1.312001,0 -1.968,-0.48 -1.968,-1.44"
         style="font-weight:500;font-family:CMU Typewriter Text;-inkscape-font-specification:CMU Typewriter Text Medium"
         id="path3760"
         inkscape:connector-curvature="0" />
      <path
         d="m 59.17348,153.24333 c -3e-6,-2.23999 1.295996,-3.96799 3.888,-5.184 2.623991,-1.24799 6.127987,-1.90399 10.512,-1.968 -1.7e-5,-1.63199 -0.544017,-2.84798 -1.632,-3.648 -1.088015,-0.83198 -2.592013,-1.24798 -4.512,-1.248 -0.704011,2e-5 -1.28001,0.016 -1.728,0.048 -0.480009,0.032 -0.768009,0.08 -0.864,0.144 -0.09601,0.064 -0.144008,0.19202 -0.144,0.384 -0.03201,0.80002 -0.272008,1.37602 -0.72,1.728 -0.448007,0.32001 -0.912007,0.48001 -1.392,0.48 -0.608006,1e-5 -1.120005,-0.19199 -1.536,-0.576 -0.416004,-0.38398 -0.624004,-0.92798 -0.624,-1.632 -4e-6,-2.33598 2.319993,-3.50398 6.96,-3.504 3.167986,2e-5 5.535983,0.75202 7.104,2.256 1.59998,1.50402 2.399979,3.23201 2.4,5.184 l 0,10.368 c 0.671979,0.256 1.631978,0.384 2.88,0.384 1.279975,0 1.919975,0.48 1.92,1.44 -2.5e-5,0.48 -0.128025,0.832 -0.384,1.056 -0.224025,0.224 -0.480025,0.352 -0.768,0.384 -0.256024,0.032 -0.672024,0.048 -1.248,0.048 -2.72002,0 -4.448019,-0.512 -5.184,-1.536 -1.856016,1.216 -4.192014,1.824 -7.008,1.824 -2.368009,0 -4.288007,-0.64 -5.76,-1.92 -1.440004,-1.28 -2.160003,-2.784 -2.16,-4.512 m 3.312,0 c -6e-6,0.96 0.463993,1.792 1.392,2.496 0.927991,0.672 2.11199,1.008 3.552,1.008 1.695987,0 3.119986,-0.272 4.272,-0.816 0.575984,-0.256 1.007984,-0.56 1.296,-0.912 0.287983,-0.384 0.447983,-0.704 0.48,-0.96 0.06398,-0.256 0.09598,-0.62399 0.096,-1.104 l 0,-4.032 c -3.424014,0.096 -6.128011,0.54401 -8.112,1.344 -1.984007,0.80001 -2.976006,1.79201 -2.976,2.976"
         style="font-weight:500;font-family:CMU Typewriter Text;-inkscape-font-specification:CMU Typewriter Text Medium"
         id="path3762"
         inkscape:connector-curvature="0" />
      <path
         d="m 82.32823,157.94733 c -1e-6,-0.992 0.655998,-1.488 1.968,-1.488 l 2.112,0 0,-14.832 -2.16,0 c -1.280002,2e-5 -1.920001,-0.47998 -1.92,-1.44 -1e-6,-0.99198 0.655998,-1.48798 1.968,-1.488 l 3.504,0 c 0.895993,2e-5 1.439992,0.16002 1.632,0.48 0.191992,0.28802 0.287992,0.88002 0.288,1.776 1.69599,-1.69598 3.791988,-2.54398 6.288,-2.544 4.15998,2e-5 6.23998,2.30402 6.24,6.912 l 0,11.136 2.112,0 c 1.31198,0 1.96798,0.496 1.968,1.488 -2e-5,0.96 -0.64002,1.44 -1.92,1.44 l -7.344,0 c -1.312014,0 -1.968014,-0.48 -1.968,-1.44 -1.4e-5,-0.992 0.655986,-1.488 1.968,-1.488 l 1.872,0 0,-10.896 c -1.7e-5,-1.50399 -0.240017,-2.57598 -0.72,-3.216 -0.448016,-0.67198 -1.280015,-1.00798 -2.496,-1.008 -1.472013,2e-5 -2.848011,0.56002 -4.128,1.68 -1.248009,1.12001 -1.872008,2.76801 -1.872,4.944 l 0,8.496 2.112,0 c 1.311988,0 1.967988,0.496 1.968,1.488 -1.2e-5,0.96 -0.640012,1.44 -1.92,1.44 l -7.632,0 c -1.280002,0 -1.920001,-0.48 -1.92,-1.44"
         style="font-weight:500;font-family:CMU Typewriter Text;-inkscape-font-specification:CMU Typewriter Text Medium"
         id="path3764"
         inkscape:connector-curvature="0" />
      <path
         d="m 32.03473,173.75385 c -1e-6,-1.11998 0.591998,-1.67998 1.776,-1.68 l 6.576,0 c 1.279989,2e-5 1.887989,0.60802 1.824,1.824 -1.1e-5,0.54402 -0.112011,0.96002 -0.336,1.248 -0.224011,0.25602 -0.44801,0.41601 -0.672,0.48 -0.22401,0.032 -0.51201,0.048 -0.864,0.048 l -2.448,0 1.872,12.384 0.144,1.056 0.048,0.912 c 0.03199,-1.216 0.543991,-3.664 1.536,-7.344 0.159989,-0.63999 0.383989,-1.11999 0.672,-1.44 0.287989,-0.31999 0.543988,-0.51199 0.768,-0.576 0.255988,-0.064 0.591987,-0.096 1.008,-0.096 l 0.288,0 c 0.255987,1e-5 0.479986,0.032 0.672,0.096 0.191986,0.032 0.351986,0.08 0.48,0.144 0.159985,0.032 0.303985,0.12801 0.432,0.288 0.127985,0.12801 0.223985,0.24001 0.288,0.336 0.06398,0.064 0.143985,0.20801 0.24,0.432 0.09598,0.22401 0.143985,0.38401 0.144,0.48 0.03198,0.064 0.07998,0.25601 0.144,0.576 0.09598,0.28801 0.159984,0.46401 0.192,0.528 0.607984,2.4 0.975983,4.592 1.104,6.576 0.06398,-1.184 0.175983,-2.448 0.336,-3.792 0.191983,-1.37599 0.351982,-2.52799 0.48,-3.456 0.159982,-0.92799 0.351982,-2.14399 0.576,-3.648 0.255981,-1.53599 0.447981,-2.68799 0.576,-3.456 l -2.496,0 c -0.352016,1e-5 -0.640016,-0.016 -0.864,-0.048 -0.224015,-0.064 -0.448015,-0.23998 -0.672,-0.528 -0.192015,-0.31998 -0.288015,-0.75198 -0.288,-1.296 -1.5e-5,-1.15198 0.607985,-1.72798 1.824,-1.728 l 6.528,0 c 1.215976,2e-5 1.823975,0.62402 1.824,1.872 -2.5e-5,1.15202 -0.624024,1.72801 -1.872,1.728 l -0.672,0 c -0.09602,0.70401 -0.272022,1.76001 -0.528,3.168 l -2.112,12.864 c -0.128019,0.672 -0.368019,1.152 -0.72,1.44 -0.320019,0.256 -0.784018,0.384 -1.392,0.384 l -0.72,0 c -0.256016,0 -0.496016,-0.032 -0.72,-0.096 -0.192016,-0.032 -0.368016,-0.064 -0.528,-0.096 -0.128015,-0.064 -0.256015,-0.176 -0.384,-0.336 -0.128015,-0.16 -0.224015,-0.288 -0.288,-0.384 -0.06401,-0.096 -0.144015,-0.272 -0.24,-0.528 -0.09601,-0.256 -0.160014,-0.432 -0.192,-0.528 -0.03201,-0.096 -0.09601,-0.32 -0.192,-0.672 -0.06401,-0.352 -0.112014,-0.592 -0.144,-0.72 -0.608013,-2.432 -0.944013,-4.512 -1.008,-6.24 -1.3e-5,1.40801 -0.240013,3.12 -0.72,5.136 -0.448012,2.016 -0.800012,3.216 -1.056,3.6 -0.416011,0.576 -1.04001,0.864 -1.872,0.864 l -1.008,0 c -1.248007,0 -1.968006,-0.608 -2.16,-1.824 l -2.112,-12.864 c -0.256004,-1.40799 -0.432004,-2.46399 -0.528,-3.168 l -0.72,0 c -0.320003,1e-5 -0.576002,-0.016 -0.768,-0.048 -0.192002,-0.032 -0.416002,-0.20798 -0.672,-0.528 -0.256001,-0.31998 -0.384001,-0.76798 -0.384,-1.344"
         style="font-weight:bold;line-height:69.99999881%;fill:#d7005f;font-family:CMU Typewriter Text;-inkscape-font-specification:CMU Typewriter Text Bold"
         id="path3766"
         inkscape:connector-curvature="0" />
      <path
         d="m 58.78948,182.63385 c -3e-6,-3.26399 0.991996,-5.88799 2.976,-7.872 1.983992,-1.98398 4.54399,-2.97598 7.68,-2.976 0.767986,2e-5 1.503985,0.064 2.208,0.192 0.735984,0.12802 1.551983,0.43202 2.448,0.912 0.927981,0.44802 1.71198,1.05602 2.352,1.824 0.639979,0.76801 1.183979,1.85601 1.632,3.264 0.479978,1.40801 0.719977,3.05601 0.72,4.944 -2.3e-5,1.12001 -0.624022,1.68001 -1.872,1.68 l -13.92,0 c 0.575993,1.952 1.599992,3.344 3.072,4.176 1.503989,0.8 3.151987,1.2 4.944,1.2 1.535984,0 2.687983,-0.64 3.456,-1.92 0.09598,-0.16 0.223982,-0.4 0.384,-0.72 0.159981,-0.32 0.271981,-0.512 0.336,-0.576 0.09598,-0.096 0.271981,-0.192 0.528,-0.288 0.25598,-0.096 0.60798,-0.144 1.056,-0.144 l 0.144,0 c 1.215978,0 1.823977,0.496 1.824,1.488 -2.3e-5,1.12 -0.784022,2.368 -2.352,3.744 -1.536019,1.344 -3.632017,2.016 -6.288,2.016 -3.392011,0 -6.128008,-0.992 -8.208,-2.976 -2.080004,-2.016 -3.120003,-4.672 -3.12,-7.968 m 4.128,-1.344 11.76,0 c -0.256018,-3.93599 -2.000016,-5.90398 -5.232,-5.904 -1.824011,2e-5 -3.31201,0.54401 -4.464,1.632 -1.152008,1.05601 -1.840007,2.48001 -2.064,4.272"
         style="font-weight:bold;line-height:69.99999881%;fill:#d7005f;font-family:CMU Typewriter Text;-inkscape-font-specification:CMU Typewriter Text Bold"
         id="path3768"
         inkscape:connector-curvature="0" />
      <path
         d="m 81.94423,165.88185 c -0.032,-0.73597 0.143999,-1.21597 0.528,-1.44 0.383999,-0.25597 0.847998,-0.38397 1.392,-0.384 l 4.176,0 c 0.479993,3e-5 0.863993,0.048 1.152,0.144 0.319992,0.096 0.527992,0.27203 0.624,0.528 0.127991,0.22403 0.191991,0.41603 0.192,0.576 0.03199,0.16002 0.04799,0.40002 0.048,0.72 l 0,8.304 c 1.919989,-1.63198 4.015987,-2.44798 6.288,-2.448 2.655982,2e-5 4.83198,0.96002 6.528,2.88 1.69598,1.92001 2.54398,4.56001 2.544,7.92 -2e-5,3.584 -0.97602,6.304 -2.928,8.16 -1.92002,1.824 -4.160017,2.736 -6.72,2.736 -2.144012,0 -4.04801,-0.832 -5.712,-2.496 l 0,0.384 c -9e-6,1.28 -0.576008,1.92 -1.728,1.92 l -0.432,0 c -1.248005,0 -1.872005,-0.592 -1.872,-1.776 l 0,-23.904 -2.352,0 c -1.216001,2e-5 -1.792,-0.60798 -1.728,-1.824 m 8.112,18.528 c -9e-6,1.088 0.447991,2.288 1.344,3.6 0.927989,1.312 2.175988,1.968 3.744,1.968 1.887984,0 3.391983,-0.656 4.512,-1.968 1.15198,-1.312 1.72798,-3.07199 1.728,-5.28 -2e-5,-2.52799 -0.57602,-4.36799 -1.728,-5.52 -1.152017,-1.15199 -2.496016,-1.72799 -4.032,-1.728 -1.472013,1e-5 -2.768011,0.51201 -3.888,1.536 -1.120009,0.99201 -1.680009,2.00001 -1.68,3.024 l 0,4.368"
         style="font-weight:bold;line-height:69.99999881%;fill:#d7005f;font-family:CMU Typewriter Text;-inkscape-font-specification:CMU Typewriter Text Bold"
         id="path3770"
         inkscape:connector-curvature="0" />
    </g>
  </g>
</svg>
